<svg xmlns="http://www.w3.org/2000/svg" height="40" viewBox="0 -960 960 960" width="40"><path fill="#FFFFFF" d="M230-275.333q57.667-40 119.53-61.833Q411.394-359 480.392-359q68.999 0 132.083 22.846 63.084 22.845 118.858 61.155 38.001-50.667 55.001-99.305 17-48.639 17-105.696 0-135.832-93.717-229.583-93.718-93.751-229.501-93.751-135.783 0-229.616 93.751Q156.666-615.832 156.666-480q0 57.667 16.852 105.645 16.851 47.978 56.482 99.022ZM479.93-438q-61.368 0-103.482-42.071-42.114-42.07-42.114-103 0-60.929 42.184-103.429Q418.703-729 480.07-729q61.368 0 103.482 42.57 42.114 42.571 42.114 103.5 0 60.93-42.184 102.93-42.185 42-103.552 42Zm-.035 387.333q-88.562 0-166.189-33.29-77.627-33.291-136.797-92.718-59.169-59.427-92.706-136.926-33.536-77.499-33.536-167.16 0-86.572 33.807-164.848 33.807-78.275 92.631-137.57 58.824-59.294 136.391-93.057Q391.063-910 480.761-910q86.572 0 164.848 34.141 78.275 34.14 137.333 93Q842-724 876-645.643q34 78.358 34 165.748 0 88.562-33.764 166.264-33.763 77.702-93.057 136.526-59.295 58.824-137.594 92.63-78.3 33.808-165.69 33.808ZM480-156.666q51.667 0 96-13 44.334-13 92.001-47.334-47.725-32.645-92.363-47.156Q531-278.667 480-278.667q-51 0-95 14.5t-91.334 47.369q47 33.87 90.834 47.001 43.833 13.131 95.5 13.131ZM480-519q27.578 0 45.956-18 18.378-18 18.378-46t-18.378-46.5Q507.578-648.001 480-648.001q-27.578 0-45.956 18.501-18.378 18.5-18.378 46.5t18.378 46q18.378 18 45.956 18Zm0-64.333Zm1 365.666Z"/></svg>