<?xml version="1.0" encoding="UTF-8" standalone="no"?>
<svg
   version="1.0"
   width="766pt"
   height="766pt"
   viewBox="0 0 766 766"
   preserveAspectRatio="xMidYMid"
   id="svg26"
   xmlns="http://www.w3.org/2000/svg"
   xmlns:svg="http://www.w3.org/2000/svg">
  <defs
     id="defs26" />
  <g
     transform="matrix(0.1,0,0,-0.1,0,766)"
     fill="#000000"
     stroke="none"
     id="g26"
     style="fill:#ffffff;fill-opacity:1">
    <path
       d="M 982,7447 880,7345 984,7241 c 57,-57 108,-102 113,-100 15,6 193,196 193,205 0,10 -191,204 -200,204 -3,0 -51,-46 -108,-103 z"
       id="path1"
       style="fill:#ffffff;fill-opacity:1" />
    <path
       d="m 6402,7447 -103,-103 103,-108 103,-107 108,107 107,108 -102,103 c -57,57 -105,103 -108,103 -3,0 -52,-46 -108,-103 z"
       id="path2"
       style="fill:#ffffff;fill-opacity:1" />
    <path
       d="m 3561,7439 c -329,-25 -717,-134 -1065,-298 -58,-27 -106,-55 -106,-62 0,-9 125,-221 147,-248 1,-2 47,16 100,42 397,186 747,267 1155,267 247,0 390,-17 611,-71 268,-66 511,-166 744,-305 114,-68 323,-219 323,-233 0,-4 -66,-71 -147,-147 l -148,-140 -70,49 c -128,90 -375,200 -548,246 l -37,10 2,-181 3,-181 85,-22 c 395,-101 712,-429 786,-812 70,-368 -118,-752 -443,-900 l -55,-25 63,-27 c 35,-15 82,-39 104,-53 131,-83 249,-239 306,-404 33,-98 34,-101 34,-269 0,-194 -12,-250 -89,-406 -63,-125 -113,-194 -212,-289 -141,-135 -278,-214 -465,-265 -52,-15 -100,-28 -106,-30 -10,-3 -13,-48 -13,-180 0,-96 2,-175 5,-175 3,0 65,20 137,44 273,89 495,226 717,441 342,331 545,722 643,1240 20,105 23,151 23,370 0,256 -10,342 -59,547 -11,43 -11,60 -3,66 7,6 89,48 184,96 l 172,86 20,-65 c 23,-72 63,-280 83,-420 16,-117 16,-460 0,-600 -56,-480 -242,-949 -526,-1324 -318,-419 -706,-708 -1203,-894 -475,-178 -1065,-213 -1545,-91 -182,46 -368,109 -368,125 0,5 118,9 290,9 h 291 l -3,148 -3,147 -571,5 -571,5 -74,60 c -41,33 -144,129 -229,212 l -155,152 181,1 c 100,0 215,3 257,6 l 77,7 v 148 149 h 773 c 735,0 773,1 803,19 16,10 77,68 134,130 l 104,111 h 196 c 215,0 260,8 368,61 119,58 225,192 251,317 33,159 -14,317 -129,426 -74,71 -161,112 -268,128 l -81,12 -3,95 c -2,53 -2,160 0,237 l 3,141 79,6 c 106,7 194,49 276,131 65,66 95,118 119,211 27,106 15,199 -40,311 -38,77 -124,168 -194,203 -92,48 -144,55 -373,53 l -217,-2 -106,100 -107,100 h -525 c -466,0 -524,2 -513,15 7,8 25,15 41,15 15,0 31,5 35,11 3,6 3,71 -1,145 l -7,134 h -594 c -327,0 -594,3 -594,6 0,15 288,344 301,344 4,0 38,-31 77,-70 45,-45 78,-70 92,-70 104,0 233,120 215,201 -5,20 -61,84 -175,201 l -168,172 -59,-48 C 1715,6611 1481,6352 1294,6063 1216,5942 1098,5712 1042,5570 899,5210 840,4891 840,4470 c 0,-588 123,-1062 403,-1550 137,-240 282,-427 496,-640 468,-467 1060,-744 1766,-825 325,-37 688,-5 1072,95 415,109 750,275 1068,531 155,125 249,212 353,328 674,757 923,1789 677,2807 -37,156 -108,380 -128,407 -11,17 -38,5 -336,-143 -178,-89 -324,-160 -325,-158 0,2 -31,63 -68,136 l -67,132 151,122 151,121 21,-24 c 12,-14 32,-40 46,-58 l 26,-34 132,88 c 73,49 132,93 132,100 0,22 -233,350 -272,382 -11,10 -28,-1 -88,-54 -41,-36 -149,-131 -240,-211 -91,-80 -175,-155 -188,-166 l -22,-20 -98,104 c -53,57 -97,106 -97,110 0,4 97,96 215,205 315,291 518,482 668,628 l 132,129 -39,47 c -22,25 -67,73 -100,106 l -61,59 -52,-50 c -141,-134 -293,-277 -371,-348 l -87,-79 -73,60 c -200,165 -429,299 -705,412 -447,183 -901,256 -1371,220 z m 350,-2075 c 79,-74 163,-155 187,-179 l 42,-44 v -728 l -1,-728 -182,-188 -182,-188 -1191,1 H 1393 l -33,73 c -18,39 -48,118 -66,174 -36,107 -96,368 -86,377 3,4 115,6 248,6 h 243 l 3,-112 3,-113 1003,-3 1002,-2 v 265 265 H 2435 1161 l -7,37 c -8,44 1,497 10,512 5,8 291,11 992,11 h 984 v -110 -110 h 285 285 l -2,258 -3,257 -1242,3 c -684,1 -1243,5 -1243,9 0,22 48,175 87,276 l 46,117 H 2560 3767 Z M 1865,2990 c 0,-13 -22,-15 -142,-15 -86,0 -144,4 -145,10 -5,16 50,23 172,21 95,-1 115,-4 115,-16 z"
       id="path3"
       style="fill:#ffffff;fill-opacity:1" />
    <path
       d="m 1291,7134 c -12,-15 -21,-34 -21,-44 0,-10 9,-29 21,-44 41,-52 129,-19 129,50 0,62 -90,88 -129,38 z"
       id="path4"
       style="fill:#ffffff;fill-opacity:1" />
    <path
       d="m 1452,7004 c -45,-31 -19,-114 36,-114 28,0 62,34 62,60 0,23 -42,70 -62,70 -8,0 -24,-7 -36,-16 z"
       id="path5"
       style="fill:#ffffff;fill-opacity:1" />
    <path
       d="m 3543,6679 c -45,-13 -96,-67 -111,-117 -35,-117 85,-243 201,-211 47,13 106,63 123,106 53,125 -79,263 -213,222 z"
       id="path6"
       style="fill:#ffffff;fill-opacity:1" />
    <path
       d="m 3340,2753 c -58,-22 -109,-95 -110,-155 0,-49 31,-109 73,-139 74,-54 182,-34 238,44 77,107 -2,258 -135,256 -28,0 -58,-3 -66,-6 z"
       id="path7"
       style="fill:#ffffff;fill-opacity:1" />
    <path
       d="m 2372,2603 3,-148 254,-3 c 197,-2 256,1 263,10 4,7 8,75 8,151 v 137 h -265 -266 z"
       id="path8"
       style="fill:#ffffff;fill-opacity:1" />
    <path
       d="m 3812,2263 c -67,-33 -107,-122 -88,-197 17,-67 117,-134 180,-121 84,18 156,94 156,166 0,121 -139,206 -248,152 z"
       id="path9"
       style="fill:#ffffff;fill-opacity:1" />
    <path
       d="m 5925,2098 c -32,-17 -45,-39 -45,-75 0,-69 62,-117 120,-93 62,26 78,104 31,151 -31,31 -70,37 -106,17 z"
       id="path10"
       style="fill:#ffffff;fill-opacity:1" />
    <path
       d="m 1364,2029 c -42,-12 -101,-79 -110,-124 -10,-56 10,-109 58,-149 49,-42 95,-53 151,-36 148,44 163,238 23,301 -45,20 -74,22 -122,8 z"
       id="path11"
       style="fill:#ffffff;fill-opacity:1" />
    <path
       d="m 6216,1829 c -48,-37 -25,-109 36,-109 55,0 81,83 36,114 -29,21 -40,20 -72,-5 z"
       id="path12"
       style="fill:#ffffff;fill-opacity:1" />
    <path
       d="m 987,1713 -108,-107 106,-106 105,-105 107,108 108,107 -106,105 -105,106 z"
       id="path13"
       style="fill:#ffffff;fill-opacity:1" />
    <path
       d="m 6406,1714 -106,-108 105,-106 105,-105 107,107 107,107 -106,107 -105,107 z"
       id="path14"
       style="fill:#ffffff;fill-opacity:1" />
    <path
       d="m 917,844 c -4,-4 -7,-139 -7,-300 0,-257 2,-293 16,-298 28,-11 62,-6 78,9 14,14 18,14 45,0 60,-31 165,-13 219,38 88,82 81,261 -12,332 -50,38 -124,51 -180,33 l -45,-15 -3,101 -3,101 -50,3 c -28,2 -54,0 -58,-4 z m 237,-298 c 105,-44 76,-196 -38,-196 -53,0 -105,77 -91,133 8,29 41,63 70,70 11,3 21,5 23,6 1,0 18,-5 36,-13 z"
       id="path15"
       style="fill:#ffffff;fill-opacity:1" />
    <path
       d="m 4547,844 c -4,-4 -7,-139 -7,-300 0,-320 -3,-304 60,-304 19,0 33,7 40,21 11,20 12,20 32,2 15,-14 36,-18 88,-18 60,0 74,4 111,30 52,37 81,91 87,161 8,102 -72,213 -166,230 -22,4 -53,1 -83,-9 l -48,-15 -3,102 -3,101 -50,3 c -28,2 -54,0 -58,-4 z m 262,-320 c 26,-22 31,-33 31,-69 0,-63 -33,-100 -90,-100 -35,0 -47,6 -71,33 -38,42 -39,89 -3,131 34,41 88,43 133,5 z"
       id="path16"
       style="fill:#ffffff;fill-opacity:1" />
    <path
       d="m 1941,761 c -6,-11 -11,-38 -11,-60 v -41 h -46 -45 l 3,-47 3,-48 43,-3 42,-3 v -80 c 0,-44 5,-100 11,-124 21,-81 90,-126 175,-112 48,8 64,23 64,61 0,46 -10,54 -70,58 l -55,3 -3,98 -3,97 h 66 65 v 50 50 h -65 -64 l -3,58 -3,57 -47,3 c -38,2 -49,-1 -57,-17 z"
       id="path17"
       style="fill:#ffffff;fill-opacity:1" />
    <path
       d="m 5542,768 c -6,-6 -12,-34 -12,-60 v -48 h -45 -45 v -50 -50 h 45 45 v -84 c 0,-115 7,-142 49,-186 43,-45 93,-59 152,-41 46,14 59,35 47,78 -8,31 -11,32 -66,35 l -57,3 -3,97 -3,97 63,3 63,3 v 45 45 l -62,3 -62,3 -3,57 -3,57 -45,3 c -26,2 -50,-2 -58,-10 z"
       id="path18"
       style="fill:#ffffff;fill-opacity:1" />
    <path
       d="m 1545,655 c -141,-50 -180,-253 -69,-357 81,-76 221,-75 289,1 l 19,22 -39,34 c -38,31 -41,32 -59,17 -28,-26 -99,-22 -130,7 -14,13 -23,28 -20,32 3,5 65,9 138,9 h 134 l -6,48 c -9,90 -72,170 -149,191 -48,14 -59,13 -108,-4 z m 123,-127 c 12,-12 22,-25 22,-30 0,-4 -36,-8 -80,-8 -84,0 -99,10 -62,42 37,33 81,31 120,-4 z"
       id="path19"
       style="fill:#ffffff;fill-opacity:1" />
    <path
       d="m 3139,656 c -92,-33 -139,-100 -139,-201 0,-138 107,-231 242,-211 43,6 129,56 127,74 0,4 -16,20 -36,36 -28,24 -38,28 -53,18 -34,-21 -86,-25 -118,-8 -25,13 -42,34 -42,52 0,2 61,4 135,4 h 135 v 43 c -1,84 -57,163 -139,192 -52,18 -65,18 -112,1 z m 101,-116 c 11,-6 24,-19 30,-30 10,-19 7,-20 -70,-20 -84,0 -95,7 -63,42 18,20 73,24 103,8 z"
       id="path20"
       style="fill:#ffffff;fill-opacity:1" />
    <path
       d="m 3604,660 c -184,-41 -214,-312 -44,-398 74,-37 161,-24 237,36 l 22,17 -39,33 c -39,32 -40,33 -71,16 -40,-20 -93,-13 -125,17 -13,13 -24,26 -24,31 0,4 61,8 135,8 h 135 v 45 c 0,123 -113,221 -226,195 z m 96,-130 c 34,-34 24,-40 -60,-40 -47,0 -80,4 -80,10 0,24 41,50 80,50 27,0 47,-7 60,-20 z"
       id="path21"
       style="fill:#ffffff;fill-opacity:1" />
    <path
       d="m 4050,655 c -22,-10 -36,-12 -38,-5 -2,5 -26,10 -53,10 h -49 V 462 c 0,-215 2,-222 55,-222 50,0 55,13 55,141 0,103 2,119 21,143 27,34 77,36 107,3 20,-21 22,-34 22,-145 0,-111 2,-122 20,-132 11,-6 36,-8 55,-4 l 35,6 v 153 c 0,141 -2,154 -23,185 -44,66 -139,95 -207,65 z"
       id="path22"
       style="fill:#ffffff;fill-opacity:1" />
    <path
       d="m 6447,656 c -58,-16 -94,-48 -108,-96 -25,-82 39,-144 161,-157 33,-3 60,-8 60,-10 0,-2 -5,-13 -10,-24 -14,-25 -78,-26 -128,0 l -38,19 -31,-38 c -30,-35 -31,-39 -15,-53 33,-29 86,-49 142,-54 106,-10 190,51 190,138 0,67 -56,109 -167,124 -53,7 -65,19 -41,43 15,15 69,15 103,0 23,-10 29,-8 60,22 19,19 35,38 35,43 0,12 -79,44 -125,51 -22,3 -62,-1 -88,-8 z"
       id="path23"
       style="fill:#ffffff;fill-opacity:1" />
    <path
       d="m 2230,646 c 0,-14 94,-270 132,-357 20,-49 21,-49 68,-49 26,0 52,6 58,13 5,6 31,70 58,141 l 48,129 43,-114 c 63,-168 60,-163 120,-167 42,-2 54,1 61,15 15,28 132,373 132,389 0,10 -15,14 -55,14 h -54 l -42,-132 c -24,-73 -44,-128 -46,-123 -2,6 -25,64 -52,130 l -48,120 -52,3 c -29,2 -58,-2 -65,-7 -7,-6 -30,-61 -51,-123 -21,-62 -41,-116 -44,-121 -4,-4 -27,50 -52,120 l -45,128 -57,3 c -45,2 -57,0 -57,-12 z"
       id="path24"
       style="fill:#ffffff;fill-opacity:1" />
    <path
       d="m 4990,648 c 0,-15 115,-275 139,-313 18,-29 18,-31 -2,-85 -11,-30 -23,-59 -28,-64 -5,-5 -27,-2 -53,8 -51,20 -60,17 -82,-26 -15,-29 -14,-31 8,-55 33,-36 71,-53 118,-53 33,0 48,7 80,38 32,30 56,74 126,237 97,224 126,303 118,316 -3,5 -27,9 -53,9 h -48 l -31,-67 c -16,-38 -40,-90 -52,-118 l -22,-50 -56,118 -55,117 h -54 c -34,0 -53,-4 -53,-12 z"
       id="path25"
       style="fill:#ffffff;fill-opacity:1" />
    <path
       d="m 5948,631 c -110,-70 -119,-240 -18,-339 73,-71 218,-68 284,6 18,21 18,22 -15,49 -38,32 -32,31 -86,14 -22,-8 -53,-11 -67,-7 -28,7 -66,39 -66,56 0,6 50,10 130,10 h 130 v 50 c 0,113 -79,190 -193,190 -41,0 -63,-6 -99,-29 z m 166,-104 c 15,-23 7,-27 -66,-34 -71,-6 -86,2 -62,35 24,34 106,34 128,-1 z"
       id="path26"
       style="fill:#ffffff;fill-opacity:1" />
  </g>
</svg>
